<?xml version="1.0" encoding="UTF-8"?>
<!DOCTYPE svg PUBLIC "-//W3C//DTD SVG 1.1//EN" "http://www.w3.org/Graphics/SVG/1.1/DTD/svg11.dtd">
<!-- Creator: CorelDRAW 2021 (64-Bit) -->
<svg xmlns="http://www.w3.org/2000/svg" xml:space="preserve" width="215.9mm" height="279.4mm" version="1.1" style="shape-rendering:geometricPrecision; text-rendering:geometricPrecision; image-rendering:optimizeQuality; fill-rule:evenodd; clip-rule:evenodd"
viewBox="0 0 21590 27940"
 xmlns:xlink="http://www.w3.org/1999/xlink"
 xmlns:xodm="http://www.corel.com/coreldraw/odm/2003">
 <defs>
  <style type="text/css">
   <![CDATA[
    .fil0 {fill:black}
   ]]>
  </style>
 </defs>
 <g id="Capa_x0020_1">
  <metadata id="CorelCorpID_0Corel-Layer"/>
  <g id="_2515974368880">
   <path class="fil0" d="M3171.91 12087.83c0,967.96 162.8,1864.6 530.17,2726.23 101.38,237.77 221.27,491.9 362.04,714.89 31.14,49.34 35.23,58.14 64.7,114.79l227.71 336.39c145.84,218.93 314.64,441.56 501.29,626.91 137.41,136.46 205.05,229.89 358.84,359.11l801.4 660.14c73.13,48.55 135.47,89.95 215.36,143.61 378.76,254.4 804.1,462.95 1236.23,609.93 193.15,65.69 361.67,129.9 563.75,179.84 350.7,86.67 954.08,280.24 1128.68,-199.62 92.5,-254.2 0.8,-497.5 -201.67,-650.47 -131.92,-99.67 -327.76,-105.99 -517.14,-149.53 -332.17,-76.36 -694.66,-195.93 -989.46,-343.87 -138.04,-69.26 -310.76,-143.84 -441,-225.67l-962.25 -704.41c-48.24,-43.69 -45.29,-31.33 -88.67,-65.18 -35.76,-27.92 -57.82,-54.43 -91.3,-88.19 -53.88,-54.33 -104.24,-95.52 -150.06,-157.63l-307.69 -358.97c-54.9,-72.7 -90.69,-121.21 -142.88,-190.46l-380.12 -619.88c-189.76,-382.78 -355.71,-756.81 -466.79,-1199.88 -264.52,-1055.14 -230.36,-2220.4 129.85,-3239.65 29.87,-84.53 61.1,-150.07 95.69,-237.65l579.59 -1061.44c44.4,-66.61 80.59,-112.41 130.21,-177.48 53.1,-69.64 100.87,-123.43 146.83,-186.5l468.09 -506.26c47.03,-39.52 42.48,-24.84 89.5,-64.35 33.84,-28.44 57.54,-57.24 89.69,-89.8 61.01,-61.8 111.52,-96.14 183.74,-149.6l373.45 -267.57c208.56,-121.2 406.47,-270.81 633.42,-366.58 994.26,-419.59 1492.24,-530.18 2598.03,-530.18 824.63,0 1399.07,219.83 2080.47,483.63 171.9,66.55 435.21,221.38 601.7,321.38 63.86,38.35 101.45,62.98 138.34,118.07 -72.88,108.83 -145.79,231.53 -226.26,337.84 -97.14,128.35 -209.64,284.92 -209.64,457.03 208.27,110.2 527.65,35.86 723.22,5.28 265.64,-41.55 1266.28,-54.11 1442.48,-172.91 240.74,-162.3 40.42,-549.77 -12.18,-755.12 -109.27,-426.67 -212.3,-887.01 -361.24,-1305.42 -41.5,-116.6 -45.09,-125.91 -151.25,-182.08 -228.38,120.84 -333.86,384.27 -497.57,604.99 -51.48,69.41 -42.65,23.49 -66.53,112.96 -243.34,-128.76 -450.67,-276.47 -700.94,-401.64 -800.65,-400.4 -1701.44,-700.93 -2683.68,-700.93 -895.7,0 -1393.59,46.58 -2221.01,291.81 -131.15,38.87 -191.03,52.46 -309.46,100.79 -371.04,151.41 -741.52,304.37 -1084.29,505.46 -523.49,307.12 -1012.29,696.34 -1430.67,1133.43l-457.23 542.77c-492.34,652.01 -1002.16,1606.5 -1162.19,2427.56 -97.4,499.7 -181.3,915.25 -181.3,1434.08z"/>
   <path class="fil0" d="M8966.78 8498.08l0 4128.21c95.64,50.6 192.81,88.81 287.28,148.61l575.89 295.91c52.27,26.08 93.35,43.44 136.49,68.64l1889.15 982.64c245.16,122.61 1043.52,563.69 1193.2,576.83 234.22,20.58 641.19,-287.57 364.91,-699.04 -93.9,-139.85 -520.25,-320.55 -677.69,-399.23 -78.81,-39.39 -156.16,-73.28 -239.62,-119.36l-2162.01 -1120.04c-154.87,-77.28 -367.05,-217.78 -495.81,-247.78l0 -3435.9c0,-205.37 27.19,-379.57 -51.15,-512.95l-92.2 -112.92c-287.27,-251.17 -728.44,-88.62 -728.44,446.38z"/>
   <path class="fil0" d="M15223.19 12087.83c0,228.86 11.01,442.11 127.12,590.83 293.74,376.24 949.8,187.2 949.8,-308.78l0 -410.26c0,-624.99 -1076.92,-783.98 -1076.92,128.21z"/>
   <path class="fil0" d="M13787.29 16113.47c0,265.83 251.67,538.46 461.54,538.46 441.21,0 419.66,-114.15 660.36,-390.92 275.76,-317.09 231.51,-698.72 -44.7,-865.77 -451.14,-272.84 -687.01,84.85 -852.74,276.02 -43.98,50.72 -109.44,134.83 -143.2,190.13 -25.14,41.18 -81.26,198.81 -81.26,252.08z"/>
   <path class="fil0" d="M12223.19 17421.16c0,308.94 234.19,538.46 435.9,538.46 323.58,0 334.19,-27.88 671.86,-251.21 81.88,-54.15 133.26,-85.07 183.57,-175.41 267.29,-479.94 -142.98,-829.79 -445.18,-829.79 -166.73,0 -560.17,236.79 -665.35,334.65 -97.52,90.73 -180.8,228.38 -180.8,383.3z"/>
   <path class="fil0" d="M14838.57 14369.88c0,218.75 124.59,357.76 286.53,457.06 196.81,120.67 554.66,62.09 713.89,-200.23 106.89,-176.09 179.07,-459.87 179.07,-667.09 0,-504.17 -774.87,-679.93 -1000.63,-180.12 -50.39,111.55 -178.86,443.75 -178.86,590.38z"/>
   <path class="fil0" d="M14812.93 9933.98c0,303.19 197.52,923.08 641.03,923.08 147.56,0 273.47,-57.27 353.2,-133.97 267.06,-256.93 202.25,-458.24 104.71,-734.2 -115.1,-325.65 -178.81,-542.09 -611.76,-542.09 -253.33,0 -487.18,233.85 -487.18,487.18z"/>
   <path class="fil0" d="M10300.11 18113.47l37.28 244.77c201.88,463.74 662.62,292.86 913.41,244.38 85.91,-16.61 124.09,-21.99 193.63,-62.78 54.57,-32.01 106.79,-67.49 143.18,-113.23 168.19,-211.38 195.75,-500.32 -11.12,-717.73 -232.27,-244.11 -476.24,-164.78 -762.13,-106.81 -274.82,55.73 -514.25,224.23 -514.25,511.4z"/>
  </g>
 </g>
</svg>
