<?xml version="1.0" encoding="UTF-8"?>
<!DOCTYPE svg PUBLIC "-//W3C//DTD SVG 1.1//EN" "http://www.w3.org/Graphics/SVG/1.1/DTD/svg11.dtd">
<!-- Creator: CorelDRAW 2021 (64-Bit) -->
<svg xmlns="http://www.w3.org/2000/svg" xml:space="preserve" width="215.9mm" height="279.4mm" version="1.1" style="shape-rendering:geometricPrecision; text-rendering:geometricPrecision; image-rendering:optimizeQuality; fill-rule:evenodd; clip-rule:evenodd"
viewBox="0 0 21590 27940"
 xmlns:xlink="http://www.w3.org/1999/xlink"
 xmlns:xodm="http://www.corel.com/coreldraw/odm/2003">
 <defs>
  <style type="text/css">
   <![CDATA[
    .fil0 {fill:black}
   ]]>
  </style>
 </defs>
 <g id="Capa_x0020_1">
  <metadata id="CorelCorpID_0Corel-Layer"/>
  <g id="_2515469221056">
   <path class="fil0" d="M10841.53 13254.64l0 -1144.7 733.79 0c0,319.85 56.85,1189.6 -80.86,1357.36 -201.44,245.42 -652.93,123.53 -652.93,-212.66zm704.44 -1907.83c-358.97,0 -868.89,42.39 -1165.09,-97.03l-236.75 -144.81c-31.88,-27.56 -62.66,-45.35 -83.2,-63.56l-227.9 -300.42c-56.53,-104.17 -106.85,-272.13 -106.85,-421.48l0 -1966.54 2964.49 0 0 1937.19c0,161.1 -49.8,305.1 -107.1,421.23 -186.76,378.5 -552.71,635.42 -1037.6,635.42zm3052.53 -3756.97l-6780.15 0c-425.08,0 -352.22,-504.64 -352.22,-733.79l7484.59 0c0,220.35 64.78,733.79 -352.22,733.79zm-10155.56 -1174.06c0,270.49 124.6,440.27 410.92,440.27l1819.79 0c0,400.39 13.67,795.4 285.67,1093.84 203.6,223.4 444.78,403.08 859.03,403.08l1115.35 0 0 1790.43c0,706.24 259.27,1113.71 681.75,1519.6 89.71,86.18 329.76,239.81 462.95,270.83 0,1023.33 -201.31,1701.25 461.38,2209.6 84.26,64.63 160.8,112.51 272.4,138.51 0,225.35 -36.84,569.37 108.74,713.1 206.26,203.64 575.13,130.99 648.58,-161.24 40.95,-162.93 35.17,-351.55 35.17,-551.86 335.86,-78.25 623.23,-460.84 711.16,-815.1 65.07,-262.13 22.62,-1170.19 22.62,-1533.01 487.96,-113.68 939.29,-747.25 1080.25,-1297.21 99.56,-388.44 64.45,-1822.88 64.45,-2283.65l1144.71 0c552.03,0 1085.99,-506.57 1085.99,-1056.65l0 -440.27c294.8,0 1860.92,37.47 2022.18,-32.42 403.05,-174.66 244.35,-730.71 -114.34,-730.71l-12855.88 0c-149.22,0 -322.87,173.65 -322.87,322.86z"/>
   <path class="fil0" d="M10812.18 16277.83c0,359.85 -32.4,792.49 83.61,1119.8 31.56,89.06 57.01,113.48 101.9,191.61 88.13,153.41 302.47,348.55 459.51,421.04 114.53,52.87 330.92,115.61 498.59,117.78 799.2,10.37 1607.6,-1.1 2407.9,-1.1 298.04,0 949.51,-67.13 1156.05,47.36 308.77,171.17 217.5,623.05 -133.68,681.49 -191.25,31.83 -8734.54,4.95 -9592.95,4.94 -202.42,-0.01 -381.18,-7.82 -545.5,41.53 -133.39,40.06 -299.51,121.76 -401.59,214.79 -864.94,788.31 -211.98,2003.73 653.57,2003.73l12122.1 0c358.06,0 517.94,-555.14 114.34,-730.72 -168.23,-73.18 -2460.8,-32.41 -2726.61,-32.41l-9334.01 0.29c-584.45,3.28 -524.51,-483.54 -345.61,-639.71 176.53,-154.12 759.86,-94.37 1109.03,-94.37l8746.7 0c477.33,0.14 807.35,-99.77 1091.61,-493.36 436.11,-603.82 124.96,-1536 -650.63,-1738.05 -533.19,-138.9 -3528.17,91.23 -3846.36,-86.72 -358.42,-200.45 -54.16,-810.1 -232.52,-1235.04 -133.75,-318.63 -735.45,-292.6 -735.45,207.12z"/>
  </g>
 </g>
</svg>
