<?xml version="1.0" encoding="UTF-8"?>
<!DOCTYPE svg PUBLIC "-//W3C//DTD SVG 1.1//EN" "http://www.w3.org/Graphics/SVG/1.1/DTD/svg11.dtd">
<!-- Creator: CorelDRAW 2021 (64-Bit) -->
<svg xmlns="http://www.w3.org/2000/svg" xml:space="preserve" width="215.9mm" height="279.4mm" version="1.1" style="shape-rendering:geometricPrecision; text-rendering:geometricPrecision; image-rendering:optimizeQuality; fill-rule:evenodd; clip-rule:evenodd"
viewBox="0 0 21590 27940"
 xmlns:xlink="http://www.w3.org/1999/xlink"
 xmlns:xodm="http://www.corel.com/coreldraw/odm/2003">
 <defs>
  <style type="text/css">
   <![CDATA[
    .fil0 {fill:black}
   ]]>
  </style>
 </defs>
 <g id="Capa_x0020_1">
  <metadata id="CorelCorpID_0Corel-Layer"/>
  <g id="_2516014252208">
   <path class="fil0" d="M4893.98 13355.6c0,-345.14 78.29,-1001.7 158.6,-1323.27 49.79,-199.32 99.13,-388.71 162.23,-578.71 182.85,-550.57 600.44,-1348.13 982.68,-1795.83l343.15 -397.78c167.36,-175.24 174.71,-157.72 292.1,-263.61l397.14 -343.8c78.59,-59.74 130.47,-99.48 215.01,-155.45 479.9,-317.69 654.89,-421.25 1206.7,-645.64 505.64,-205.62 1276.15,-397.05 1826.5,-396.31 149.78,0.2 182.77,-27.63 343.38,-27.63 310.64,0 1047.09,90.16 1323.27,159.14 893.58,223.19 1339.5,437.9 2053.31,910.44 366.47,242.61 361.81,299.92 614.22,497.18l712.2 769.68c667.82,878.46 1198.88,2154.95 1197.4,3248.21 -0.2,149.78 27.63,182.77 27.63,343.38 0,308.25 -90.59,1048.83 -159.14,1323.27 -217.75,871.69 -520.66,1551.1 -1065.89,2268.32l-422.95 503.22c-114.43,136.31 -210.82,191.77 -291.32,264.39 -469.99,423.99 -495.32,435.76 -1067.36,784.98 -278.18,169.83 -704.12,357.78 -1019.39,462.48 -434.71,144.38 -1084.31,294.38 -1558.6,293.74 -149.78,-0.2 -182.77,27.63 -343.38,27.63l-688.78 -52.7c-482.41,-43.72 -1038.11,-191.1 -1481.1,-371.24 -340.19,-138.33 -678,-292.21 -984.4,-497.47 -422.57,-283.09 -564.82,-411.19 -940.53,-726.57 -249.94,-209.81 -721.62,-841.89 -911.81,-1125.77 -368.23,-549.66 -602.89,-1192.98 -762.27,-1831.01 -79.73,-319.18 -158.6,-983.49 -158.6,-1323.27zm5805.54 -6774.27l241.06 0c875.39,13.87 1760.94,179.49 2474.18,502.77 89.14,40.4 179.66,76.02 273.55,123.38 369.35,186.3 703.36,356.93 1038.99,601.65l691.76 551.95c424.76,356.56 986.95,1104.72 1268.31,1589.59 107.62,185.47 183.53,342.43 282.22,538.09l239.17 581.16c332.7,1003.91 386.98,1434.51 386.98,2523.84 0,1154.81 -423.22,2331.75 -917.5,3184.1 -247.9,427.48 -549.28,802.49 -862.25,1175.33 -57.36,68.33 -132.55,132.85 -198.32,198.61 -623.68,623.68 -1160.58,964.15 -1929.36,1351.92l-581.16 239.17c-1003.91,332.7 -1434.51,386.98 -2523.84,386.98 -839.45,0 -1940.71,-280.7 -2646.2,-635.08 -968.84,-486.67 -1740.2,-1054.98 -2413,-1900.31l-260.03 -348.59c-260.63,-371.89 -395.05,-636.51 -599.41,-1041.24 -48.24,-95.55 -89.29,-191.82 -130.61,-292.78 -396.79,-969.6 -486.86,-1756.75 -486.86,-2820.89 0,-1418.36 645.82,-2968.97 1527.56,-4029.46 42.43,-51.03 32.86,-53.96 79.59,-105.64 37.87,-41.87 70.24,-62.96 106.08,-105.62 186.48,-221.94 476.75,-527 705.35,-697.13 662.21,-492.82 617.16,-505.2 1506.64,-954.33 95.55,-48.24 191.82,-89.29 292.78,-130.61l920.84 -296.41c467.64,-118.09 985.63,-181.99 1513.48,-190.45z"/>
   <path class="fil0" d="M10398.08 9492.15l0 529.24c-281.19,6.26 -708.83,296.93 -919.94,482.55 -59.82,52.59 -44.59,62.67 -92.49,119.2l-173.45 223.48c-48.86,74.31 -111.29,185.86 -148.6,274.8 -414.25,987.33 33.4,2121.23 1080.04,2541.54 494.79,198.71 828.71,33.09 1196.8,258.62 240.56,147.39 397.87,336.38 483.91,601.03 80.99,249.14 61.86,506.5 -41.3,747.2 -29.49,68.81 -56,107.31 -98.86,165.76 -92.78,126.56 -80.2,126.74 -190.16,206.77 -290.41,211.37 -572.97,324.71 -967.95,205 -273.85,-83 -471.66,-247.98 -620.51,-490.9 -98.73,-161.15 -125.84,-338.91 -142.32,-572.15 -16.39,-232.02 -209.42,-370.21 -476.58,-370.21 -165.24,0 -370.46,205.22 -370.46,370.47 0,294.32 22.74,539.29 140.76,785.4 96.41,201.04 244.08,458.67 395.49,610.07 42.74,42.73 63.82,39.1 119.2,92.49 90.51,87.25 130.2,115.67 238.51,184.88 116.87,74.67 419.09,228.66 587.91,232.42l0 529.24c0,191.91 183.56,370.47 476.31,370.47 165.25,0 370.47,-205.22 370.47,-370.47l0 -529.24c184.84,-4.12 439.38,-141.29 571.62,-222.24l348.32 -260.31c145.36,-127.8 325.88,-444.66 412.47,-619.55 284.99,-575.62 158.02,-1415.02 -242.51,-1919.52 -326.93,-411.81 -859.81,-741.46 -1434.08,-735.81 -429.39,4.23 -740.63,-165.96 -963.58,-491.83 -627.87,-917.75 518.47,-2069.23 1435.34,-1461.8 367.3,243.34 476.17,508.32 507.25,948.16 16.39,232.02 209.42,370.21 476.58,370.21 165.24,0 370.46,-205.22 370.46,-370.47 0,-507.4 -130.76,-931.09 -456.68,-1289.8 -159.36,-175.39 -203.92,-234.79 -437.35,-382.97 -127.14,-80.71 -403.34,-228.38 -587.84,-232.49l0 -529.24c0,-191.91 -183.56,-370.47 -476.31,-370.47 -165.25,0 -370.47,205.22 -370.47,370.47z"/>
  </g>
 </g>
</svg>
