<?xml version="1.0" encoding="UTF-8"?>
<!DOCTYPE svg PUBLIC "-//W3C//DTD SVG 1.1//EN" "http://www.w3.org/Graphics/SVG/1.1/DTD/svg11.dtd">
<!-- Creator: CorelDRAW 2021 (64-Bit) -->
<svg xmlns="http://www.w3.org/2000/svg" xml:space="preserve" width="215.9mm" height="279.4mm" version="1.1" style="shape-rendering:geometricPrecision; text-rendering:geometricPrecision; image-rendering:optimizeQuality; fill-rule:evenodd; clip-rule:evenodd"
viewBox="0 0 21590 27940"
 xmlns:xlink="http://www.w3.org/1999/xlink"
 xmlns:xodm="http://www.corel.com/coreldraw/odm/2003">
 <defs>
  <style type="text/css">
   <![CDATA[
    .fil0 {fill:black}
   ]]>
  </style>
 </defs>
 <g id="Capa_x0020_1">
  <metadata id="CorelCorpID_0Corel-Layer"/>
  <g id="_2516004401888">
   <path class="fil0" d="M4394.25 16011.81c0,-200.57 39.86,-388.85 73.14,-576.03 37.67,-211.86 66.47,-370.6 99.04,-578.35l98.12 -551.05c186.6,-952.12 765.98,-4698.72 952.36,-5087.71 75.18,-156.92 154.48,-275.16 244.42,-404.75 82.83,-119.33 226.57,-233.65 355.89,-321.5 265.4,-180.29 599.52,-327.06 1027.72,-327.06l6265.88 0c743,0 1316.09,420.97 1618.68,1034.43 74.16,150.34 113.32,310.61 148.29,500.88l603.88 3432.25c78.88,517.9 479.84,2510.46 479.84,2878.89 0,913.85 -815.67,1721.71 -1637.03,1721.71l-8693.2 0c-459.79,0 -844.91,-239.5 -1136.02,-529.23 -291.98,-290.59 -501.01,-746.91 -501.01,-1192.48zm5849.98 -11854.35l267.3 0c673.81,44.62 1328.95,427.05 1682.6,1147.33 222.99,454.17 249.37,1031.2 78.81,1509.8 -71.13,199.6 -140.55,307.12 -229.81,475.81l1550.55 1.81c84.86,9.95 53.54,22.53 170.66,26.9 257.09,9.6 515.69,79.29 714.92,160.05l802.86 495.48c239.08,240.99 413.18,413.8 571.72,726.61 97.01,191.42 180.97,392.96 237.18,637.78 131.71,573.63 417.67,2245.92 524.49,2947.15 103.23,677.75 284.89,1519.06 392.34,2204.33 136.72,872.04 316.07,1260.36 155.56,2069.19 -40.11,202.13 -83.14,326.06 -162.52,486.64 -24.85,50.26 -29.03,71.05 -50.78,118.57l-313.3 476.99c-144.12,166.47 -295.72,340.21 -489.39,470.24 -398.76,267.74 -878.58,496.34 -1422.94,496.34l-8693.2 0c-536.68,0 -1048.31,-234.92 -1440.06,-507.44 -73.24,-50.96 -100.94,-90.25 -185.79,-152.91 -287.56,-212.36 -516.29,-630.45 -670.15,-938.64 -118.2,-236.75 -215.99,-709.39 -215.99,-1054.13 0,-234.47 401.84,-2494.6 496.1,-2975.53 171.97,-877.48 486.25,-3003.38 660.58,-3686.01 153.95,-602.78 403.43,-943.8 825.49,-1347.82 428.53,-410.21 1068.04,-608.28 1714.91,-655.96l1496.26 0.36c-89.26,-168.69 -158.68,-276.21 -229.81,-475.81 -96.28,-270.15 -108.89,-431.7 -108.89,-737.85 0,-286.11 89.34,-571.62 187.7,-771.95 353.65,-720.28 1008.79,-1102.72 1682.6,-1147.33zm-995.34 2088.62c0,-378.96 55.13,-592.78 304.59,-880.85 38.52,-44.48 84.64,-65.85 139.87,-114.15 301.49,-263.66 821.99,-290.24 1211.44,-96.4 166.15,82.7 240.08,146.46 342.93,278.01 281.04,359.46 351.5,822.83 156.13,1218.42 -83.59,169.24 -138.24,238.33 -268.76,352.19 -787.06,686.62 -1886.2,58.9 -1886.2,-757.22z"/>
   <path class="fil0" d="M10631.9 12483.73c0,600.37 -98.56,1318.69 317.41,1799.44 161.72,186.91 238.09,258.61 491.23,383.74 350.04,173.04 733.73,160.81 1086.72,22.65l398.39 -250.78c198.89,-179.3 444.04,-578.21 444.04,-854.29l0 -564.49c0,-488.8 -769.79,-366.92 -1072.53,-366.92 -502.83,0 -714.34,874.96 197.57,874.96 -26.37,113.2 -66.12,206.54 -151.25,272.13 -216.03,166.42 -482.14,168.15 -675.26,-10.11 -85.68,-79.08 -161.35,-191.65 -161.35,-346.69l0 -959.64c0,-287.1 207.9,-479.82 536.26,-479.82 405.43,0 258.27,338.7 762.07,338.7 229.46,0 366.92,-205.79 366.92,-479.82 0,-294.44 -611.08,-733.84 -1072.54,-733.84 -355.99,0 -625,57.04 -895.91,261.29 -342.58,258.28 -571.77,649.45 -571.77,1093.49z"/>
   <path class="fil0" d="M7386.07 11495.87l0 2935.36c0,229.05 384.28,536.65 723.05,243.23 95.23,-82.49 123.62,-201.99 124.74,-326.85 2.69,-300.48 -1.05,-603.43 -1.05,-904.24 159.33,106.7 499.63,513.71 698.57,712.65 386.64,386.64 704.68,873.47 1101.37,522.8 270.07,-238.74 106.84,-528.68 -85.28,-720.37 -58.61,-58.49 -96.77,-96.79 -155.46,-155.01 -75.39,-74.8 -86.61,-113.45 -154.41,-184.28 -168.24,-175.77 -526.89,-482.62 -642.73,-655.61 189.75,-283.36 1185.44,-1108.68 1185.44,-1383.01 0,-227.51 -167.05,-451.59 -451.6,-451.59 -295.86,0 -459.51,299.26 -599.15,445.15l-706.73 704.51c-80.47,89.14 -60.74,142.38 -190.02,176.9 0,-685.59 133.84,-1326.56 -423.37,-1326.56 -218.18,0 -423.37,163.73 -423.37,366.92z"/>
  </g>
 </g>
</svg>
